<svg xmlns="http://www.w3.org/2000/svg" xmlns:xlink="http://www.w3.org/1999/xlink" viewBox="0 0 300 210"><defs><style>.cls-1,.cls-11,.cls-15,.cls-16{fill:none;}.cls-2{isolation:isolate;}.cls-3{fill:#a9c6ff;}.cls-10,.cls-11,.cls-14,.cls-16,.cls-3{stroke:#194def;}.cls-10,.cls-11,.cls-14,.cls-15,.cls-16,.cls-3{stroke-miterlimit:10;}.cls-10,.cls-11,.cls-3{stroke-width:0.89px;}.cls-16,.cls-4{opacity:0.3;}.cls-5{clip-path:url(#clip-path);}.cls-6{mix-blend-mode:multiply;}.cls-14,.cls-7,.cls-8{fill:#194def;}.cls-13,.cls-14,.cls-8{opacity:0.35;}.cls-10,.cls-9{fill:#fff;}.cls-12{fill:#fd2c34;}.cls-14{stroke-width:0.78px;}.cls-15{stroke:#fd2c34;}.cls-15,.cls-16{stroke-width:1.1px;}.cls-16{stroke-linecap:round;}</style><clipPath id="clip-path"><rect class="cls-1" x="38" y="29.89" width="81.05" height="62.57" transform="translate(12.84 -13.61) rotate(10.79)"/></clipPath></defs><title>author-small</title><g class="cls-2"><g id="Layer_1" data-name="Layer 1"><rect class="cls-3" x="36.63" y="29.67" width="80.91" height="80.91" transform="translate(13.91 -12.75) rotate(10.39)"/><g class="cls-4"><g class="cls-5"><g class="cls-6"><circle class="cls-7" cx="1.51" cy="32.16" r="1.53"/><circle class="cls-7" cx="6.22" cy="39.09" r="1.53"/><circle class="cls-7" cx="-0.36" cy="43.87" r="1.53"/><circle class="cls-7" cx="10.93" cy="46.02" r="1.53"/><circle class="cls-7" cx="4.35" cy="50.8" r="1.53"/><circle class="cls-7" cx="15.64" cy="52.95" r="1.53"/><circle class="cls-7" cx="9.06" cy="57.73" r="1.53"/><circle class="cls-7" cx="20.36" cy="59.88" r="1.53"/><circle class="cls-7" cx="2.48" cy="62.51" r="1.53"/><circle class="cls-7" cx="13.77" cy="64.66" r="1.53"/><circle class="cls-7" cx="7.19" cy="69.44" r="1.53"/><circle class="cls-7" cx="18.48" cy="71.59" r="1.53"/><circle class="cls-7" cx="0.61" cy="74.22" r="1.53"/><circle class="cls-7" cx="11.9" cy="76.37" r="1.53"/></g><circle class="cls-7" cx="55.15" cy="24.28" r="1.53"/><circle class="cls-7" cx="66.44" cy="26.43" r="1.53"/><circle class="cls-7" cx="77.74" cy="28.59" r="1.53"/><circle class="cls-7" cx="89.03" cy="30.74" r="1.53"/><circle class="cls-7" cx="100.33" cy="32.89" r="1.53"/><circle class="cls-7" cx="111.62" cy="35.04" r="1.53"/><circle class="cls-7" cx="122.92" cy="37.19" r="1.53"/><circle class="cls-7" cx="48.56" cy="29.06" r="1.53"/><circle class="cls-7" cx="59.86" cy="31.21" r="1.53"/><circle class="cls-7" cx="71.15" cy="33.36" r="1.53"/><circle class="cls-7" cx="82.45" cy="35.52" r="1.53"/><circle class="cls-7" cx="93.74" cy="37.67" r="1.53"/><circle class="cls-7" cx="105.04" cy="39.82" r="1.53"/><circle class="cls-7" cx="116.34" cy="41.97" r="1.53"/><circle class="cls-7" cx="41.98" cy="33.84" r="1.53"/><circle class="cls-7" cx="53.27" cy="35.99" r="1.53"/><circle class="cls-7" cx="64.57" cy="38.14" r="1.53"/><circle class="cls-7" cx="75.86" cy="40.29" r="1.53"/><circle class="cls-7" cx="87.16" cy="42.45" r="1.53"/><circle class="cls-7" cx="98.46" cy="44.6" r="1.53"/><circle class="cls-7" cx="109.75" cy="46.75" r="1.53"/><circle class="cls-7" cx="121.05" cy="48.9" r="1.53"/><circle class="cls-7" cx="46.69" cy="40.77" r="1.53"/><circle class="cls-7" cx="57.99" cy="42.92" r="1.53"/><circle class="cls-7" cx="69.28" cy="45.07" r="1.53"/><circle class="cls-7" cx="80.58" cy="47.22" r="1.53"/><circle class="cls-7" cx="91.87" cy="49.38" r="1.53"/><circle class="cls-7" cx="103.17" cy="51.53" r="1.53"/><circle class="cls-7" cx="114.46" cy="53.68" r="1.53"/><circle class="cls-7" cx="40.11" cy="45.55" r="1.53"/><circle class="cls-7" cx="51.4" cy="47.7" r="1.53"/><circle class="cls-7" cx="62.7" cy="49.85" r="1.53"/><circle class="cls-7" cx="73.99" cy="52" r="1.53"/><circle class="cls-7" cx="96.58" cy="56.31" r="1.53"/><circle class="cls-7" cx="107.88" cy="58.46" r="1.53"/><circle class="cls-7" cx="119.18" cy="60.61" r="1.53"/><circle class="cls-7" cx="44.82" cy="52.48" r="1.53"/><circle class="cls-7" cx="56.11" cy="54.63" r="1.53"/><circle class="cls-7" cx="101.3" cy="63.24" r="1.53"/><circle class="cls-7" cx="112.59" cy="65.39" r="1.53"/><circle class="cls-7" cx="38.24" cy="57.25" r="1.53"/><circle class="cls-7" cx="106.01" cy="70.17" r="1.53"/><circle class="cls-7" cx="117.3" cy="72.32" r="1.53"/><circle class="cls-7" cx="99.43" cy="74.95" r="1.53"/><circle class="cls-7" cx="110.72" cy="77.1" r="1.53"/><circle class="cls-7" cx="104.14" cy="81.88" r="1.53"/></g></g><rect class="cls-3" x="75.46" y="82.3" width="146.55" height="96.37"/><polygon class="cls-8" points="75.45 142.9 113.5 138.74 107.32 82.3 75.45 82.3 75.45 142.9"/><path class="cls-9" d="M156.08,126.67l-15.88-8.53a.16.16,0,0,0-.23.14v17.06a.16.16,0,0,0,.23.14L156.08,127A.16.16,0,0,0,156.08,126.67Z"/><rect class="cls-10" x="19.96" y="56.21" width="80.91" height="80.91" transform="translate(-10.15 7.14) rotate(-6.24)"/><line class="cls-11" x1="103.45" y1="118.01" x2="23.02" y2="126.81"/><polygon class="cls-12" points="58.43 82.1 54.04 91.43 49.74 86.17 43.37 99.69 50.57 98.81 59.19 97.74 70.12 96.39 58.43 82.1"/><polygon class="cls-12" points="58.39 82.1 64.92 90.09 67.81 83.94 77.27 95.51 70.08 96.4 61.45 97.46 50.53 98.81 58.39 82.1"/><rect class="cls-3" x="198.69" y="56.33" width="80.03" height="95.76" transform="translate(0.55 -1.26) rotate(0.3)"/><rect class="cls-3" x="192.25" y="50.14" width="80.03" height="96.42" transform="translate(0.52 -1.22) rotate(0.3)"/><rect class="cls-10" x="188.86" y="43.97" width="76.98" height="97.22" transform="translate(0.49 -1.19) rotate(0.3)"/><g class="cls-13"><path class="cls-7" d="M217.47,91.51H215.2l-3.46-9.39h2l2.64,7.49,2.74-7.46H221Z"/><path class="cls-7" d="M223,90.4a1.32,1.32,0,0,1-1.3,1.3,1.3,1.3,0,1,1,1.3-1.3Z"/><path class="cls-7" d="M232.25,86.91c0,3-1.84,4.84-4.07,4.83s-4-1.85-4-4.88S226,82,228.23,82,232.26,83.88,232.25,86.91Zm-6.2,0c0,2,.94,3.12,2.14,3.12s2.16-1,2.17-3.1-.93-3.12-2.14-3.13S226.06,84.83,226.05,86.88Z"/><path class="cls-7" d="M237.32,91.62h-1.8l0-7-2.24.9V83.72l4.06-1.61Z"/></g><path class="cls-14" d="M188.76,75.47A24.12,24.12,0,0,0,217.81,43.8l-28.87-.16Z"/><circle class="cls-10" cx="195.15" cy="52.17" r="18.77"/><polyline class="cls-15" points="195.2 43.67 195.15 52.17 200.5 57.59"/><line class="cls-16" x1="248.2" y1="102.44" x2="235.54" y2="114.96"/><line class="cls-16" x1="233.27" y1="117.2" x2="229.98" y2="120.46"/><line class="cls-16" x1="248.15" y1="110.39" x2="229.62" y2="128.72"/></g></g></svg>