<svg xmlns="http://www.w3.org/2000/svg" xmlns:xlink="http://www.w3.org/1999/xlink" viewBox="0 0 300 210"><defs><style>.cls-1,.cls-15,.cls-16{fill:none;}.cls-2{isolation:isolate;}.cls-14,.cls-3{fill:#a9c6ff;}.cls-11,.cls-13,.cls-15,.cls-16,.cls-17,.cls-3{stroke:#194def;stroke-miterlimit:10;}.cls-13,.cls-15,.cls-3{stroke-width:0.99px;}.cls-4{opacity:0.3;}.cls-5{clip-path:url(#clip-path);}.cls-6{mix-blend-mode:multiply;}.cls-10,.cls-7{fill:#194def;}.cls-8{clip-path:url(#clip-path-2);}.cls-9{clip-path:url(#clip-path-3);}.cls-10{opacity:0.4;}.cls-11,.cls-12,.cls-13,.cls-17{fill:#fff;}.cls-11{stroke-width:0.68px;}.cls-16,.cls-17{stroke-width:0.9px;}.cls-18{fill:#fd2c34;}</style><clipPath id="clip-path"><rect class="cls-1" x="110.75" y="130.62" width="47.89" height="47.98"/></clipPath><clipPath id="clip-path-2"><rect class="cls-1" x="61.35" y="34.16" width="47.89" height="47.98"/></clipPath><clipPath id="clip-path-3"><rect class="cls-1" x="159.29" y="34.16" width="47.89" height="47.98"/></clipPath></defs><title>developer-small</title><g class="cls-2"><g id="Layer_1" data-name="Layer 1"><rect class="cls-3" x="61.35" y="34.16" width="146.47" height="144.63" rx="3.29" ry="3.29"/><g class="cls-4"><g class="cls-5"><g class="cls-6"><circle class="cls-7" cx="137.34" cy="132.29" r="1.49"/><circle class="cls-7" cx="148.53" cy="132.29" r="1.49"/><circle class="cls-7" cx="159.71" cy="132.29" r="1.49"/><circle class="cls-7" cx="131.92" cy="138.05" r="1.49"/><circle class="cls-7" cx="143.11" cy="138.05" r="1.49"/><circle class="cls-7" cx="154.29" cy="138.05" r="1.49"/><circle class="cls-7" cx="115.32" cy="143.82" r="1.49"/><circle class="cls-7" cx="126.5" cy="143.82" r="1.49"/><circle class="cls-7" cx="137.69" cy="143.82" r="1.49"/><circle class="cls-7" cx="148.87" cy="143.82" r="1.49"/><circle class="cls-7" cx="109.9" cy="149.58" r="1.49"/><circle class="cls-7" cx="121.08" cy="149.58" r="1.49"/><circle class="cls-7" cx="132.27" cy="149.58" r="1.49"/><circle class="cls-7" cx="143.45" cy="149.58" r="1.49"/><circle class="cls-7" cx="154.63" cy="149.58" r="1.49"/><circle class="cls-7" cx="115.66" cy="155.34" r="1.49"/><circle class="cls-7" cx="126.85" cy="155.34" r="1.49"/><circle class="cls-7" cx="138.03" cy="155.34" r="1.49"/><circle class="cls-7" cx="149.21" cy="155.34" r="1.49"/><circle class="cls-7" cx="110.24" cy="161.11" r="1.49"/><circle class="cls-7" cx="121.43" cy="161.11" r="1.49"/><circle class="cls-7" cx="132.61" cy="161.11" r="1.49"/><circle class="cls-7" cx="143.79" cy="161.11" r="1.49"/><circle class="cls-7" cx="154.98" cy="161.11" r="1.49"/><circle class="cls-7" cx="116.01" cy="166.87" r="1.49"/><circle class="cls-7" cx="127.19" cy="166.87" r="1.49"/><circle class="cls-7" cx="138.37" cy="166.87" r="1.49"/><circle class="cls-7" cx="149.56" cy="166.87" r="1.49"/><circle class="cls-7" cx="110.59" cy="172.63" r="1.49"/><circle class="cls-7" cx="121.77" cy="172.63" r="1.49"/><circle class="cls-7" cx="132.95" cy="172.63" r="1.49"/><circle class="cls-7" cx="144.14" cy="172.63" r="1.49"/><circle class="cls-7" cx="155.32" cy="172.63" r="1.49"/><circle class="cls-7" cx="116.35" cy="178.4" r="1.49"/><circle class="cls-7" cx="127.53" cy="178.4" r="1.49"/><circle class="cls-7" cx="138.72" cy="178.4" r="1.49"/><circle class="cls-7" cx="149.9" cy="178.4" r="1.49"/></g><circle class="cls-7" cx="159.37" cy="120.76" r="1.49"/><circle class="cls-7" cx="170.55" cy="120.76" r="1.49"/><circle class="cls-7" cx="165.13" cy="126.52" r="1.49"/><circle class="cls-7" cx="170.89" cy="132.29" r="1.49"/></g></g><g class="cls-4"><g class="cls-8"><g class="cls-6"><circle class="cls-7" cx="60.92" cy="32.9" r="1.49"/><circle class="cls-7" cx="72.11" cy="32.9" r="1.49"/><circle class="cls-7" cx="83.29" cy="32.9" r="1.49"/><circle class="cls-7" cx="94.47" cy="32.9" r="1.49"/><circle class="cls-7" cx="105.66" cy="32.9" r="1.49"/><circle class="cls-7" cx="66.69" cy="38.66" r="1.49"/><circle class="cls-7" cx="77.87" cy="38.66" r="1.49"/><circle class="cls-7" cx="89.05" cy="38.66" r="1.49"/><circle class="cls-7" cx="100.24" cy="38.66" r="1.49"/><circle class="cls-7" cx="61.27" cy="44.43" r="1.49"/><circle class="cls-7" cx="72.45" cy="44.43" r="1.49"/><circle class="cls-7" cx="83.63" cy="44.43" r="1.49"/><circle class="cls-7" cx="94.82" cy="44.43" r="1.49"/><circle class="cls-7" cx="106" cy="44.43" r="1.49"/><circle class="cls-7" cx="67.03" cy="50.19" r="1.49"/><circle class="cls-7" cx="78.21" cy="50.19" r="1.49"/><circle class="cls-7" cx="89.4" cy="50.19" r="1.49"/><circle class="cls-7" cx="100.58" cy="50.19" r="1.49"/><circle class="cls-7" cx="61.61" cy="55.95" r="1.49"/><circle class="cls-7" cx="72.79" cy="55.95" r="1.49"/><circle class="cls-7" cx="83.98" cy="55.95" r="1.49"/><circle class="cls-7" cx="95.16" cy="55.95" r="1.49"/><circle class="cls-7" cx="106.34" cy="55.95" r="1.49"/><circle class="cls-7" cx="67.37" cy="61.72" r="1.49"/><circle class="cls-7" cx="78.56" cy="61.72" r="1.49"/><circle class="cls-7" cx="89.74" cy="61.72" r="1.49"/><circle class="cls-7" cx="100.92" cy="61.72" r="1.49"/><circle class="cls-7" cx="106.69" cy="67.48" r="1.49"/></g></g></g><g class="cls-4"><g class="cls-9"><g class="cls-6"><circle class="cls-7" cx="167.98" cy="34.57" r="1.49"/><circle class="cls-7" cx="162.45" cy="40.22" r="1.49"/><circle class="cls-7" cx="173.63" cy="40.45" r="1.49"/><circle class="cls-7" cx="168.09" cy="46.1" r="1.49"/><circle class="cls-7" cx="162.56" cy="51.75" r="1.49"/><circle class="cls-7" cx="173.74" cy="51.98" r="1.49"/><circle class="cls-7" cx="168.2" cy="57.63" r="1.49"/><circle class="cls-7" cx="162.67" cy="63.28" r="1.49"/><circle class="cls-7" cx="173.85" cy="63.51" r="1.49"/><circle class="cls-7" cx="168.31" cy="69.16" r="1.49"/><circle class="cls-7" cx="162.78" cy="74.81" r="1.49"/><circle class="cls-7" cx="173.96" cy="75.04" r="1.49"/><circle class="cls-7" cx="168.42" cy="80.69" r="1.49"/></g></g></g><path class="cls-10" d="M205.05,34.16H64.12a2.77,2.77,0,0,0-2.77,2.77v11a2.77,2.77,0,0,1,2.77-2.77H205.05a2.77,2.77,0,0,1,2.77,2.77v-11A2.77,2.77,0,0,0,205.05,34.16Z"/><line class="cls-11" x1="158.86" y1="34.48" x2="158.86" y2="178.85"/><line class="cls-11" x1="110.2" y1="34.48" x2="110.2" y2="178.85"/><line class="cls-11" x1="62.05" y1="82.69" x2="207.9" y2="82.69"/><line class="cls-11" x1="62.05" y1="131.35" x2="207.12" y2="131.35"/><rect class="cls-10" x="44.92" y="82.73" width="98.38" height="67.53" rx="4.14" ry="4.14" transform="translate(15.17 -10.77) rotate(7.12)"/><rect class="cls-12" x="37.3" y="124.81" width="23.55" height="23.55"/><rect class="cls-13" x="36.01" y="64.93" width="98.38" height="72.82" rx="4.14" ry="4.14" transform="translate(13.22 -9.78) rotate(7.12)"/><rect class="cls-14" x="61.62" y="76.31" width="17.96" height="4.26" rx="1.97" ry="1.97" transform="translate(10.27 -8.15) rotate(7.12)"/><rect class="cls-14" x="56.14" y="120.17" width="17.96" height="4.26" rx="1.97" ry="1.97" transform="translate(15.67 -7.13) rotate(7.12)"/><rect class="cls-14" x="70.64" y="87.07" width="33.53" height="4.26" rx="1.97" ry="1.97" transform="translate(11.73 -10.15) rotate(7.12)"/><rect class="cls-14" x="67.27" y="114.05" width="33.53" height="4.26" rx="1.97" ry="1.97" transform="translate(15.06 -9.52) rotate(7.12)"/><rect class="cls-14" x="76.24" y="105.96" width="33.53" height="4.26" rx="1.97" ry="1.97" transform="translate(14.12 -10.7) rotate(7.12)"/><rect class="cls-14" x="77.35" y="97.09" width="33.53" height="4.26" rx="1.97" ry="1.97" transform="translate(13.03 -10.9) rotate(7.12)"/><polygon class="cls-14" points="197.32 192.78 183.24 194.72 185.18 180.64 261.11 104.71 273.25 116.85 197.32 192.78"/><polygon class="cls-12" points="185.66 180.83 183.83 194.13 197.13 192.3 190.83 187.13 185.66 180.83"/><polygon class="cls-15" points="197.32 192.78 183.24 194.72 185.18 180.64 261.11 104.71 273.25 116.85 197.32 192.78"/><path class="cls-3" d="M277.94,112.15l-7.33,7.34c-1.15,1.15-4.81-.63-8.16-4s-5.13-7-4-8.16l7.34-7.33Z"/><ellipse class="cls-3" cx="272.61" cy="105.35" rx="2.95" ry="8.58" transform="translate(5.35 223.62) rotate(-45)"/><path class="cls-15" d="M199,191.11c-1.15,1.16-4.8-.62-8.15-4s-5.14-7-4-8.15"/><line class="cls-16" x1="183.64" y1="194.72" x2="144.84" y2="194.72"/><line class="cls-16" x1="139.46" y1="194.72" x2="130.06" y2="194.72"/><rect class="cls-3" x="180.3" y="33.5" width="58.71" height="58.71"/><rect class="cls-17" x="170.81" y="25.09" width="58.71" height="58.71"/><path class="cls-18" d="M189.39,33.48c-4.16.94-8.86,3-10.73,7.15a6.3,6.3,0,0,0,2.61,8.16c4.12,2.44,9,.38,13-1.35,5.09-2.22,9.64-6,15.31-6.47,2.9-.27,8.28.92,7.47,4.94-.7,3.49-5.35,4.33-8.16,5-4.62,1.08-9.14,2.57-12.39,6.23-5.35,6.06-4.49,16.36,5,16.59,2.31.06,2.31-3.54,0-3.59-7.21-.18-4.92-8.35-1.3-11.62C204,55.08,208.9,55,213.48,53.4c5.13-1.78,10.11-7.88,5.35-12.84-5-5.24-13.16-3.35-18.77-.16-4.11,2.35-9.14,5.69-14,5.92-3.86.18-5.68-3.26-2.72-6.1a14.63,14.63,0,0,1,7-3.28c2.25-.5,1.3-4-1-3.46Z"/><path class="cls-18" d="M207.64,72.79a4.61,4.61,0,0,0,3.29-1.44,1.84,1.84,0,0,0,0-2.54,1.82,1.82,0,0,0-2.54,0l-.18.18c-.15.13-.12.12.07,0,0,.09-.3.18-.38.22s-.08,0,.13,0l-.24.07c-.2,0-.16,0,.1,0h-.25a1.8,1.8,0,1,0,0,3.59Z"/><rect class="cls-7" x="169" y="23.28" width="3.61" height="3.61"/><rect class="cls-7" x="227.71" y="23.28" width="3.61" height="3.61"/><rect class="cls-7" x="169" y="81.84" width="3.61" height="3.61"/><rect class="cls-7" x="227.71" y="81.84" width="3.61" height="3.61"/></g></g></svg>