<svg xmlns="http://www.w3.org/2000/svg" xmlns:xlink="http://www.w3.org/1999/xlink" viewBox="0 0 300 210"><defs><style>.cls-1,.cls-15{fill:none;}.cls-2{isolation:isolate;}.cls-12,.cls-3,.cls-6{fill:#a9c6ff;}.cls-12,.cls-13,.cls-3,.cls-6,.cls-8{stroke:#194def;}.cls-12,.cls-13,.cls-15,.cls-3,.cls-6,.cls-8{stroke-miterlimit:10;}.cls-3{stroke-width:0.88px;}.cls-4{opacity:0.5;mix-blend-mode:screen;}.cls-13,.cls-5,.cls-8{fill:#fff;}.cls-6,.cls-8{stroke-width:1.09px;}.cls-11,.cls-7{fill:#194def;}.cls-7{opacity:0.4;}.cls-9{clip-path:url(#clip-path);}.cls-10{opacity:0.35;}.cls-12{stroke-width:0.98px;}.cls-13{stroke-width:0.88px;}.cls-14{fill:#fd2c34;}.cls-15{stroke:#fd2c34;stroke-width:2px;}</style><clipPath id="clip-path"><polygon class="cls-1" points="228.27 87.69 228.27 28.27 160.1 3.07 160.1 87.69 228.27 87.69"/></clipPath></defs><title>manager-small</title><g class="cls-2"><g id="Layer_1" data-name="Layer 1"><path class="cls-3" d="M90.89,46.13v68.45c0,13.15,7.44,24.73,19.51,36.26,11.08,10.57,25.81,20.59,40.28,30.79,14.47-10.2,29.2-20.22,40.28-30.79,12.07-11.53,19.51-23.11,19.51-36.26V46.13L150.68,24.19Z"/><g class="cls-4"><path class="cls-5" d="M187.49,98.89a36.81,36.81,0,1,0-50.34,34.22l7.8-16.75a18,18,0,1,1,9.74,0l8.05,17.28A36.78,36.78,0,0,0,187.49,98.89Z"/></g><line class="cls-6" x1="150.68" y1="181.63" x2="150.68" y2="24.19"/><line class="cls-6" x1="210.47" y1="97.86" x2="90.89" y2="97.86"/><polygon class="cls-7" points="150.68 24.19 210.47 49.56 210.47 97.86 150.68 97.86 150.68 24.19"/><polygon class="cls-8" points="228.27 87.38 228.27 28.4 160.1 3.39 160.1 87.38 228.27 87.38"/><g class="cls-9"><g class="cls-10"><ellipse class="cls-11" cx="172.58" cy="8.39" rx="1.66" ry="1.67"/><ellipse class="cls-11" cx="160.14" cy="8.39" rx="1.66" ry="1.67"/><ellipse class="cls-11" cx="191.04" cy="14.85" rx="1.66" ry="1.67"/><ellipse class="cls-11" cx="178.6" cy="14.85" rx="1.66" ry="1.67"/><ellipse class="cls-11" cx="166.17" cy="14.85" rx="1.66" ry="1.67"/><ellipse class="cls-11" cx="209.5" cy="21.31" rx="1.66" ry="1.67"/><ellipse class="cls-11" cx="197.07" cy="21.31" rx="1.66" ry="1.67"/><ellipse class="cls-11" cx="184.63" cy="21.31" rx="1.66" ry="1.67"/><ellipse class="cls-11" cx="172.19" cy="21.31" rx="1.66" ry="1.67"/><ellipse class="cls-11" cx="159.76" cy="21.31" rx="1.66" ry="1.67"/><ellipse class="cls-11" cx="227.97" cy="27.77" rx="1.66" ry="1.67"/><ellipse class="cls-11" cx="215.53" cy="27.77" rx="1.66" ry="1.67"/><ellipse class="cls-11" cx="203.1" cy="27.77" rx="1.66" ry="1.67"/><ellipse class="cls-11" cx="190.66" cy="27.77" rx="1.66" ry="1.67"/><ellipse class="cls-11" cx="178.22" cy="27.77" rx="1.66" ry="1.67"/><ellipse class="cls-11" cx="165.79" cy="27.77" rx="1.66" ry="1.67"/><ellipse class="cls-11" cx="221.56" cy="34.23" rx="1.66" ry="1.67"/><ellipse class="cls-11" cx="209.12" cy="34.23" rx="1.66" ry="1.67"/><ellipse class="cls-11" cx="196.69" cy="34.23" rx="1.66" ry="1.67"/><ellipse class="cls-11" cx="184.25" cy="34.23" rx="1.66" ry="1.67"/><ellipse class="cls-11" cx="171.81" cy="34.23" rx="1.66" ry="1.67"/><ellipse class="cls-11" cx="159.38" cy="34.23" rx="1.66" ry="1.67"/><ellipse class="cls-11" cx="227.59" cy="40.68" rx="1.66" ry="1.67"/><ellipse class="cls-11" cx="215.15" cy="40.68" rx="1.66" ry="1.67"/><ellipse class="cls-11" cx="202.71" cy="40.68" rx="1.66" ry="1.67"/><ellipse class="cls-11" cx="190.28" cy="40.68" rx="1.66" ry="1.67"/><ellipse class="cls-11" cx="177.84" cy="40.68" rx="1.66" ry="1.67"/><ellipse class="cls-11" cx="165.4" cy="40.68" rx="1.66" ry="1.67"/><ellipse class="cls-11" cx="221.18" cy="47.14" rx="1.66" ry="1.67"/><ellipse class="cls-11" cx="208.74" cy="47.14" rx="1.66" ry="1.67"/><ellipse class="cls-11" cx="196.3" cy="47.14" rx="1.66" ry="1.67"/><ellipse class="cls-11" cx="183.87" cy="47.14" rx="1.66" ry="1.67"/><ellipse class="cls-11" cx="171.43" cy="47.14" rx="1.66" ry="1.67"/><ellipse class="cls-11" cx="227.21" cy="53.6" rx="1.66" ry="1.67"/><ellipse class="cls-11" cx="214.77" cy="53.6" rx="1.66" ry="1.67"/><ellipse class="cls-11" cx="202.33" cy="53.6" rx="1.66" ry="1.67"/><ellipse class="cls-11" cx="189.9" cy="53.6" rx="1.66" ry="1.67"/><ellipse class="cls-11" cx="177.46" cy="53.6" rx="1.66" ry="1.67"/><ellipse class="cls-11" cx="165.02" cy="53.6" rx="1.66" ry="1.67"/><ellipse class="cls-11" cx="220.8" cy="60.06" rx="1.66" ry="1.67"/><ellipse class="cls-11" cx="208.36" cy="60.06" rx="1.66" ry="1.67"/><ellipse class="cls-11" cx="195.92" cy="60.06" rx="1.66" ry="1.67"/><ellipse class="cls-11" cx="183.49" cy="60.06" rx="1.66" ry="1.67"/><ellipse class="cls-11" cx="171.05" cy="60.06" rx="1.66" ry="1.67"/><ellipse class="cls-11" cx="226.82" cy="66.51" rx="1.66" ry="1.67"/><ellipse class="cls-11" cx="214.39" cy="66.51" rx="1.66" ry="1.67"/><ellipse class="cls-11" cx="201.95" cy="66.51" rx="1.66" ry="1.67"/><ellipse class="cls-11" cx="189.51" cy="66.51" rx="1.66" ry="1.67"/><ellipse class="cls-11" cx="177.08" cy="66.51" rx="1.66" ry="1.67"/><ellipse class="cls-11" cx="164.64" cy="66.51" rx="1.66" ry="1.67"/><ellipse class="cls-11" cx="220.41" cy="72.97" rx="1.66" ry="1.67"/><ellipse class="cls-11" cx="207.98" cy="72.97" rx="1.66" ry="1.67"/><ellipse class="cls-11" cx="195.54" cy="72.97" rx="1.66" ry="1.67"/><ellipse class="cls-11" cx="183.1" cy="72.97" rx="1.66" ry="1.67"/><ellipse class="cls-11" cx="170.67" cy="72.97" rx="1.66" ry="1.67"/><ellipse class="cls-11" cx="226.44" cy="79.43" rx="1.66" ry="1.67"/><ellipse class="cls-11" cx="214.01" cy="79.43" rx="1.66" ry="1.67"/><ellipse class="cls-11" cx="201.57" cy="79.43" rx="1.66" ry="1.67"/><ellipse class="cls-11" cx="189.13" cy="79.43" rx="1.66" ry="1.67"/><ellipse class="cls-11" cx="176.7" cy="79.43" rx="1.66" ry="1.67"/><ellipse class="cls-11" cx="164.26" cy="79.43" rx="1.66" ry="1.67"/><ellipse class="cls-11" cx="220.03" cy="85.89" rx="1.66" ry="1.67"/><ellipse class="cls-11" cx="207.6" cy="85.89" rx="1.66" ry="1.67"/><ellipse class="cls-11" cx="195.16" cy="85.89" rx="1.66" ry="1.67"/><ellipse class="cls-11" cx="182.72" cy="85.89" rx="1.66" ry="1.67"/><ellipse class="cls-11" cx="170.29" cy="85.89" rx="1.66" ry="1.67"/></g></g><rect class="cls-12" x="77.18" y="136.66" width="48.67" height="48.67" rx="2.76" ry="2.76"/><rect class="cls-13" x="69.74" y="136.66" width="48.67" height="48.67" rx="2.76" ry="2.76"/><rect class="cls-14" x="84.65" y="156" width="18.85" height="14.67" rx="1" ry="1"/><path class="cls-15" d="M88.88,154.68a5.2,5.2,0,0,1,10.39,0"/><line class="cls-15" x1="99.27" y1="154.68" x2="99.27" y2="156"/><line class="cls-15" x1="88.88" y1="156" x2="88.88" y2="154.68"/></g></g></svg>